<svg width="20" height="24" viewBox="0 0 20 24" fill="none" xmlns="http://www.w3.org/2000/svg">
<path d="M4.41892 6.31132C4.41892 9.29253 6.84358 11.7154 9.82664 11.7154C12.8099 11.7154 15.2344 9.28514 15.2344 6.30412C15.2344 3.32291 12.8097 0.9 9.82664 0.9C6.84349 0.9 4.41892 3.323 4.41892 6.31132ZM6.06124 6.30412C6.06124 4.23332 7.7473 2.54134 9.82664 2.54134C11.906 2.54134 13.592 4.23332 13.592 6.30412C13.592 8.37479 11.8989 10.0669 9.82664 10.0669C7.75439 10.0669 6.06124 8.37479 6.06124 6.30412Z" fill="#98A1BD" stroke="#98A1BD" stroke-width="0.2"/>
<path d="M14.85 24.0001H4.80303C2.20346 24.0001 0.0957031 21.6235 0.0957031 18.6924C0.0957031 15.7612 2.21224 13.3846 4.80303 13.3846H14.85C17.4496 13.3846 19.5573 15.7711 19.5573 18.6924C19.5573 21.6136 17.4496 24.0001 14.85 24.0001ZM4.80303 15.3651C3.1783 15.3651 1.85217 16.8604 1.85217 18.6924C1.85217 20.5243 3.1783 22.0196 4.80303 22.0196H14.85C16.4747 22.0196 17.8009 20.5243 17.8009 18.6924C17.8009 16.8604 16.4747 15.3651 14.85 15.3651H4.80303Z" fill="#98A1BD"/>
</svg>
