<svg width="19" height="22" viewBox="0 0 19 22" fill="none" xmlns="http://www.w3.org/2000/svg">
<path d="M8.31302 22.0001C7.75916 22.0001 2.92873 21.9365 0.949345 19.603C0.241125 18.7677 -0.0312672 17.7235 0.150328 16.5886L0.168487 16.4887C0.186647 16.407 0.195726 16.3343 0.213886 16.2617L0.549837 14.9361C0.840389 13.9282 1.14002 13.0747 1.47597 12.2757C1.84824 11.404 2.32947 10.5687 2.99229 9.65164C3.84578 8.46219 4.8718 7.11839 6.25192 6.29213C6.71498 6.01974 7.44136 5.70195 8.29486 5.75643C9.15744 5.70195 9.87474 6.01066 10.3378 6.29213C11.6634 7.08207 12.6895 8.37139 13.6065 9.65164C14.2603 10.5687 14.7415 11.404 15.1228 12.2757C15.5405 13.2381 15.8946 14.3005 16.2033 15.5081L16.394 16.2617C16.6755 17.4784 16.4576 18.5952 15.7403 19.4941C13.8244 21.9365 8.87596 22.0001 8.31302 22.0001ZM2.21143 15.7714L1.9572 16.8156C1.84824 17.5056 1.96628 18.005 2.33855 18.4318C3.56431 19.8754 7.0691 20.1932 8.31302 20.1932H8.3221C9.59326 20.1932 13.1616 19.8664 14.342 18.3773C14.7142 17.9142 14.805 17.3694 14.6416 16.6794L14.4691 15.9711C14.1785 14.8543 13.8517 13.8828 13.4794 13.0021C13.1525 12.2484 12.7349 11.5221 12.1538 10.7049C11.4092 9.66072 10.5285 8.49851 9.43891 7.85385C9.07572 7.64501 8.71253 7.54514 8.39474 7.57238L8.31302 7.58146L8.22222 7.57238C7.91351 7.54514 7.54124 7.64501 7.19621 7.85385C6.11572 8.49851 5.22591 9.66072 4.48137 10.7049C3.90026 11.5221 3.48259 12.2484 3.15572 13.0021C2.84701 13.7194 2.57462 14.5002 2.32039 15.39L2.21143 15.7714Z" fill="#98A1BD"/>
<path d="M14.6053 6.98233C12.6804 6.98233 11.1187 5.42061 11.1187 3.4957C11.1187 1.5708 12.6804 0 14.6053 0C16.5302 0 18.0919 1.56172 18.0919 3.48662C18.0919 5.41153 16.5302 6.98233 14.6053 6.98233ZM14.6053 1.81595C13.6791 1.81595 12.9346 2.56957 12.9346 3.48662C12.9346 4.40368 13.6882 5.1573 14.6053 5.1573C15.5223 5.1573 16.2759 4.40368 16.2759 3.48662C16.2759 2.56957 15.5223 1.81595 14.6053 1.81595Z" fill="#98A1BD"/>
</svg>
