<svg width="26" height="22" viewBox="0 0 26 22" fill="none" xmlns="http://www.w3.org/2000/svg">
<path d="M10.0595 10.4887C9.95996 10.4706 9.86042 10.4615 9.76087 10.4615H5.61607C2.57535 10.4615 0.0957031 12.9321 0.0957031 15.9819V16.4796C0.0957031 19.5204 2.57535 22 5.61607 22H6.3491C8.39435 22 10.1953 20.8778 11.1364 19.2036C11.607 18.3982 11.8695 17.4751 11.8695 16.4796V12.5611C11.8695 11.5023 11.0731 10.6244 10.0595 10.4887ZM10.0595 16.4796C10.0595 18.5249 8.39435 20.1901 6.3491 20.1901H5.61607C3.57082 20.1901 1.90566 18.5249 1.90566 16.4796V15.9819C1.90566 13.9367 3.57082 12.2715 5.61607 12.2715H9.76087C9.92376 12.2715 10.0595 12.3982 10.0595 12.5611V16.4796Z" fill="#98A1BD"/>
<path d="M21.0009 0.0361991H20.4036V0H15.6887C12.5846 0 10.0597 2.52489 10.0597 5.62896V15.9004C10.0597 17.1403 10.4579 18.2805 11.1366 19.2036C11.6072 18.3982 11.8696 17.4751 11.8696 16.4796V5.62896C11.8696 3.52036 13.5801 1.80995 15.6887 1.80995H19.9511V1.819H21.0009C22.7475 1.819 24.1683 3.23982 24.1683 4.98642V9.14027C24.123 9.13122 24.0687 9.13122 24.0235 9.13122H20.4669C17.8606 9.13122 15.7248 11.2489 15.7248 13.8643V14.2896C15.7248 16.8959 17.8606 19.0317 20.4669 19.0317H21.0914C22.847 19.0317 24.3945 18.0633 25.1999 16.6244C25.4714 16.1629 25.6706 15.6561 25.7611 15.1041C25.8787 14.6787 25.942 14.2443 25.942 13.7919V4.98642C25.942 2.25339 23.7248 0.0361991 21.0009 0.0361991ZM24.2769 14.2896C24.2769 14.5158 24.2497 14.733 24.2135 14.9502C23.9058 16.3891 22.6208 17.4751 21.0914 17.4751H20.4669C18.7113 17.4751 17.2814 16.0452 17.2814 14.2896V13.8643C17.2814 12.1086 18.7113 10.6787 20.4669 10.6787H24.0235C24.0778 10.6787 24.123 10.6968 24.1683 10.724C24.2316 10.7692 24.2769 10.8416 24.2769 10.9321V14.2896Z" fill="#98A1BD"/>
</svg>
