<svg width="13" height="15" viewBox="0 0 13 15" fill="none" xmlns="http://www.w3.org/2000/svg">
<path d="M3 5.94903V3.74946C3 3.02026 3.3088 2.32092 3.85848 1.8053C4.40815 1.28967 5.15367 1 5.93102 1C6.70838 1 7.4539 1.28967 8.00357 1.8053C8.55324 2.32092 8.86205 3.02026 8.86205 3.74946V5.94903" stroke="#E6E7F2" stroke-width="1.5" stroke-linecap="round" stroke-linejoin="round"/>
<path fill-rule="evenodd" clip-rule="evenodd" d="M1.33769 6H10.7015C11.4403 6 12.0392 6.67377 12.0392 7.5049V12.772C12.0392 13.6032 11.4403 14.2769 10.7015 14.2769H1.33769C0.598903 14.2769 0 13.6032 0 12.772V7.5049C0 6.67377 0.598903 6 1.33769 6ZM5.94036 9.27583C5.50739 9.27583 5.1564 9.62682 5.1564 10.0598V10.9557C5.1564 11.3887 5.50739 11.7397 5.94036 11.7397C6.37333 11.7397 6.72433 11.3887 6.72433 10.9557V10.0598C6.72433 9.62682 6.37333 9.27583 5.94036 9.27583Z" fill="#E6E7F2"/>
</svg>
